<svg width="31" height="26" viewBox="0 0 31 26" fill="none" xmlns="http://www.w3.org/2000/svg">
<path d="M29.264 4.87404C28.1448 3.77707 26.6368 3.15885 25.0635 3.15198H22.8625C22.5376 3.15144 22.226 3.02446 21.9945 2.79834L20.212 1.03016C19.5449 0.371407 18.6423 0.00108983 17.701 0H13.299C12.3578 0.00108983 11.4551 0.371407 10.788 1.03016L9.00555 2.79834C8.77409 3.02446 8.46242 3.15144 8.13756 3.15198H5.93656C5.15509 3.14994 4.38094 3.30138 3.65875 3.59756C2.93656 3.89374 2.28063 4.3288 1.72876 4.87767C1.17689 5.42653 0.740019 6.07834 0.443324 6.7955C0.14663 7.51265 -0.00401293 8.28098 8.12666e-05 9.05617V20.1112C-0.00196373 20.8851 0.150192 21.6517 0.447804 22.3671C0.745416 23.0825 1.18262 23.7325 1.73428 24.2797C2.28594 24.8269 2.94118 25.2606 3.66235 25.5559C4.38352 25.8511 5.1564 26.002 5.93656 26H25.0635C26.6375 25.9964 28.1467 25.3777 29.264 24.2779C29.8158 23.731 30.2532 23.0814 30.5511 22.3664C30.849 21.6513 31.0016 20.8849 31 20.1112V9.05617C31.0019 8.28011 30.8496 7.51128 30.5517 6.79367C30.2538 6.07606 29.8162 5.42375 29.264 4.87404ZM15.438 19.45C14.3099 19.45 13.2071 19.1182 12.2691 18.4964C11.3311 17.8747 10.6 16.991 10.1682 15.9571C9.73652 14.9232 9.62356 13.7856 9.84365 12.688C10.0637 11.5904 10.607 10.5822 11.4047 9.79089C12.2024 8.99958 13.2188 8.46069 14.3252 8.24236C15.4317 8.02404 16.5786 8.13609 17.6209 8.56435C18.6631 8.9926 19.554 9.71783 20.1807 10.6483C20.8075 11.5788 21.142 12.6727 21.142 13.7918C21.1379 15.2912 20.5357 16.7281 19.4668 17.7883C18.398 18.8485 16.9496 19.446 15.438 19.45Z" fill="white"/>
</svg>
